<mxfile host="app.diagrams.net" modified="2023-08-23T16:40:22.233Z" agent="Mozilla/5.0 (X11; Linux x86_64; rv:102.0) Gecko/20100101 Firefox/102.0" etag="1A_uYz3oFwIoI_ZNJSbS" version="21.6.8" type="device">
  <diagram name="Page-1" id="9GwqQa1V1VVsC6JYyQu-">
    <mxGraphModel dx="3162" dy="1098" grid="1" gridSize="10" guides="1" tooltips="1" connect="1" arrows="1" fold="1" page="1" pageScale="1" pageWidth="850" pageHeight="1100" math="0" shadow="0">
      <root>
        <mxCell id="0" />
        <mxCell id="1" parent="0" />
        <mxCell id="I1hWbBrPSnOUSOGmWdJ9-8" value="" style="edgeStyle=orthogonalEdgeStyle;rounded=0;orthogonalLoop=1;jettySize=auto;html=1;dashed=1;dashPattern=8 8;" edge="1" parent="1">
          <mxGeometry relative="1" as="geometry">
            <mxPoint x="210" y="240" as="sourcePoint" />
            <mxPoint x="640" y="240" as="targetPoint" />
          </mxGeometry>
        </mxCell>
        <mxCell id="I1hWbBrPSnOUSOGmWdJ9-2" value="" style="endArrow=none;html=1;rounded=0;" edge="1" parent="1">
          <mxGeometry width="50" height="50" relative="1" as="geometry">
            <mxPoint x="400" y="990" as="sourcePoint" />
            <mxPoint x="400" y="80" as="targetPoint" />
          </mxGeometry>
        </mxCell>
        <mxCell id="I1hWbBrPSnOUSOGmWdJ9-3" value="" style="endArrow=none;html=1;rounded=0;" edge="1" parent="1">
          <mxGeometry width="50" height="50" relative="1" as="geometry">
            <mxPoint x="60" y="160" as="sourcePoint" />
            <mxPoint x="740" y="160" as="targetPoint" />
          </mxGeometry>
        </mxCell>
        <mxCell id="I1hWbBrPSnOUSOGmWdJ9-5" value="&lt;font style=&quot;font-size: 14px;&quot;&gt;Server&lt;/font&gt;" style="text;html=1;align=center;verticalAlign=middle;resizable=0;points=[];autosize=1;strokeColor=none;fillColor=none;" vertex="1" parent="1">
          <mxGeometry x="210" y="110" width="60" height="30" as="geometry" />
        </mxCell>
        <mxCell id="I1hWbBrPSnOUSOGmWdJ9-6" value="Send size of image to client&lt;br&gt;cmd: 0x600 [size_msb, size_lsb, 0,0,0,0,0,0] " style="text;html=1;align=center;verticalAlign=middle;resizable=0;points=[];autosize=1;strokeColor=none;fillColor=none;" vertex="1" parent="1">
          <mxGeometry x="85" y="195" width="260" height="40" as="geometry" />
        </mxCell>
        <mxCell id="I1hWbBrPSnOUSOGmWdJ9-9" value="&lt;font style=&quot;font-size: 14px;&quot;&gt;Client&lt;/font&gt;" style="text;html=1;align=center;verticalAlign=middle;resizable=0;points=[];autosize=1;strokeColor=none;fillColor=none;" vertex="1" parent="1">
          <mxGeometry x="540" y="110" width="60" height="30" as="geometry" />
        </mxCell>
        <mxCell id="I1hWbBrPSnOUSOGmWdJ9-10" value="call uc_prepare(size)" style="text;html=1;align=center;verticalAlign=middle;resizable=0;points=[];autosize=1;strokeColor=none;fillColor=none;" vertex="1" parent="1">
          <mxGeometry x="560" y="190" width="130" height="30" as="geometry" />
        </mxCell>
        <mxCell id="I1hWbBrPSnOUSOGmWdJ9-11" value="" style="edgeStyle=orthogonalEdgeStyle;rounded=0;orthogonalLoop=1;jettySize=auto;html=1;dashed=1;dashPattern=8 8;endArrow=none;endFill=0;startArrow=classic;startFill=1;" edge="1" parent="1">
          <mxGeometry relative="1" as="geometry">
            <mxPoint x="210" y="320" as="sourcePoint" />
            <mxPoint x="640" y="320" as="targetPoint" />
          </mxGeometry>
        </mxCell>
        <mxCell id="I1hWbBrPSnOUSOGmWdJ9-13" value="&lt;div&gt;Ack back:&lt;/div&gt;&lt;div&gt;0x600 [0,0,0,0,0,0,0,0]&lt;br&gt;&lt;/div&gt;" style="text;html=1;align=center;verticalAlign=middle;resizable=0;points=[];autosize=1;strokeColor=none;fillColor=none;" vertex="1" parent="1">
          <mxGeometry x="555" y="270" width="140" height="40" as="geometry" />
        </mxCell>
        <mxCell id="I1hWbBrPSnOUSOGmWdJ9-14" value="Goto next state" style="text;html=1;align=center;verticalAlign=middle;resizable=0;points=[];autosize=1;strokeColor=none;fillColor=none;" vertex="1" parent="1">
          <mxGeometry x="165" y="280" width="100" height="30" as="geometry" />
        </mxCell>
        <mxCell id="I1hWbBrPSnOUSOGmWdJ9-15" value="&lt;div&gt;Send image 8 bytes at a time&lt;/div&gt;&lt;div&gt;cmd: 0x620 [b0,b1,b2,b3,b4,b5,b6,b7]&lt;br&gt;&lt;/div&gt;" style="text;html=1;align=center;verticalAlign=middle;resizable=0;points=[];autosize=1;strokeColor=none;fillColor=none;" vertex="1" parent="1">
          <mxGeometry x="100" y="400" width="230" height="40" as="geometry" />
        </mxCell>
        <mxCell id="I1hWbBrPSnOUSOGmWdJ9-16" value="" style="edgeStyle=orthogonalEdgeStyle;rounded=0;orthogonalLoop=1;jettySize=auto;html=1;dashed=1;dashPattern=8 8;" edge="1" parent="1">
          <mxGeometry relative="1" as="geometry">
            <mxPoint x="210" y="455" as="sourcePoint" />
            <mxPoint x="640" y="455" as="targetPoint" />
          </mxGeometry>
        </mxCell>
        <mxCell id="I1hWbBrPSnOUSOGmWdJ9-17" value="write image to update space. call uc_upload(buf, size, &amp;amp;update_components)" style="text;html=1;align=center;verticalAlign=middle;resizable=0;points=[];autosize=1;strokeColor=none;fillColor=none;" vertex="1" parent="1">
          <mxGeometry x="425" y="410" width="440" height="30" as="geometry" />
        </mxCell>
        <mxCell id="I1hWbBrPSnOUSOGmWdJ9-18" value="" style="edgeStyle=orthogonalEdgeStyle;rounded=0;orthogonalLoop=1;jettySize=auto;html=1;dashed=1;dashPattern=8 8;endArrow=none;endFill=0;startArrow=classic;startFill=1;" edge="1" parent="1">
          <mxGeometry relative="1" as="geometry">
            <mxPoint x="210" y="535" as="sourcePoint" />
            <mxPoint x="640" y="535" as="targetPoint" />
          </mxGeometry>
        </mxCell>
        <mxCell id="I1hWbBrPSnOUSOGmWdJ9-19" value="&lt;div&gt;Ack back:&lt;/div&gt;&lt;div&gt;0x620 [0b,b1,b2,b3,b4,b5,b6,b7]&lt;br&gt;&lt;/div&gt;" style="text;html=1;align=center;verticalAlign=middle;resizable=0;points=[];autosize=1;strokeColor=none;fillColor=none;" vertex="1" parent="1">
          <mxGeometry x="525" y="485" width="200" height="40" as="geometry" />
        </mxCell>
        <mxCell id="I1hWbBrPSnOUSOGmWdJ9-25" value="" style="edgeStyle=orthogonalEdgeStyle;rounded=0;orthogonalLoop=1;jettySize=auto;html=1;" edge="1" parent="1" source="I1hWbBrPSnOUSOGmWdJ9-22" target="I1hWbBrPSnOUSOGmWdJ9-24">
          <mxGeometry relative="1" as="geometry" />
        </mxCell>
        <mxCell id="I1hWbBrPSnOUSOGmWdJ9-22" value="" style="rounded=0;whiteSpace=wrap;html=1;" vertex="1" parent="1">
          <mxGeometry x="-120" y="235" width="150" height="60" as="geometry" />
        </mxCell>
        <mxCell id="I1hWbBrPSnOUSOGmWdJ9-23" value="CUS_STATE_SEND_SIZE" style="text;html=1;align=center;verticalAlign=middle;resizable=0;points=[];autosize=1;strokeColor=none;fillColor=none;" vertex="1" parent="1">
          <mxGeometry x="-125" y="250" width="160" height="30" as="geometry" />
        </mxCell>
        <mxCell id="I1hWbBrPSnOUSOGmWdJ9-33" value="" style="edgeStyle=orthogonalEdgeStyle;rounded=0;orthogonalLoop=1;jettySize=auto;html=1;" edge="1" parent="1" source="I1hWbBrPSnOUSOGmWdJ9-24" target="I1hWbBrPSnOUSOGmWdJ9-32">
          <mxGeometry relative="1" as="geometry" />
        </mxCell>
        <mxCell id="I1hWbBrPSnOUSOGmWdJ9-35" style="edgeStyle=orthogonalEdgeStyle;rounded=0;orthogonalLoop=1;jettySize=auto;html=1;entryX=0.01;entryY=0.511;entryDx=0;entryDy=0;entryPerimeter=0;" edge="1" parent="1" source="I1hWbBrPSnOUSOGmWdJ9-24" target="I1hWbBrPSnOUSOGmWdJ9-26">
          <mxGeometry relative="1" as="geometry">
            <mxPoint x="-160" y="500" as="targetPoint" />
            <Array as="points">
              <mxPoint x="-45" y="560" />
              <mxPoint x="-170" y="560" />
              <mxPoint x="-170" y="495" />
              <mxPoint x="-133" y="495" />
            </Array>
          </mxGeometry>
        </mxCell>
        <mxCell id="I1hWbBrPSnOUSOGmWdJ9-24" value="" style="rounded=0;whiteSpace=wrap;html=1;" vertex="1" parent="1">
          <mxGeometry x="-130" y="465" width="170" height="60" as="geometry" />
        </mxCell>
        <mxCell id="I1hWbBrPSnOUSOGmWdJ9-26" value="CUS_STATE_SEND_IMAGE" style="text;html=1;align=center;verticalAlign=middle;resizable=0;points=[];autosize=1;strokeColor=none;fillColor=none;" vertex="1" parent="1">
          <mxGeometry x="-135" y="480" width="180" height="30" as="geometry" />
        </mxCell>
        <mxCell id="I1hWbBrPSnOUSOGmWdJ9-27" value="&lt;div&gt;Send for client to calc crc&lt;br&gt;&lt;/div&gt;&lt;div&gt;cmd: 0x640 [0,0,0,0,0,0,0,0]&lt;br&gt;&lt;/div&gt;" style="text;html=1;align=center;verticalAlign=middle;resizable=0;points=[];autosize=1;strokeColor=none;fillColor=none;" vertex="1" parent="1">
          <mxGeometry x="130" y="620" width="170" height="40" as="geometry" />
        </mxCell>
        <mxCell id="I1hWbBrPSnOUSOGmWdJ9-28" value="" style="edgeStyle=orthogonalEdgeStyle;rounded=0;orthogonalLoop=1;jettySize=auto;html=1;dashed=1;dashPattern=8 8;" edge="1" parent="1">
          <mxGeometry relative="1" as="geometry">
            <mxPoint x="210" y="675" as="sourcePoint" />
            <mxPoint x="640" y="675" as="targetPoint" />
          </mxGeometry>
        </mxCell>
        <mxCell id="I1hWbBrPSnOUSOGmWdJ9-29" value="call  calc crc to send back" style="text;html=1;align=center;verticalAlign=middle;resizable=0;points=[];autosize=1;strokeColor=none;fillColor=none;" vertex="1" parent="1">
          <mxGeometry x="565" y="630" width="160" height="30" as="geometry" />
        </mxCell>
        <mxCell id="I1hWbBrPSnOUSOGmWdJ9-30" value="" style="edgeStyle=orthogonalEdgeStyle;rounded=0;orthogonalLoop=1;jettySize=auto;html=1;dashed=1;dashPattern=8 8;endArrow=none;endFill=0;startArrow=classic;startFill=1;" edge="1" parent="1">
          <mxGeometry relative="1" as="geometry">
            <mxPoint x="210" y="755" as="sourcePoint" />
            <mxPoint x="640" y="755" as="targetPoint" />
          </mxGeometry>
        </mxCell>
        <mxCell id="I1hWbBrPSnOUSOGmWdJ9-31" value="&lt;div&gt;send back crc:&lt;/div&gt;&lt;div&gt;0x640 [crc_msb,csc_lsb, 0,0,0,0,0,0]&lt;br&gt;&lt;/div&gt;" style="text;html=1;align=center;verticalAlign=middle;resizable=0;points=[];autosize=1;strokeColor=none;fillColor=none;" vertex="1" parent="1">
          <mxGeometry x="515" y="705" width="220" height="40" as="geometry" />
        </mxCell>
        <mxCell id="I1hWbBrPSnOUSOGmWdJ9-51" style="edgeStyle=orthogonalEdgeStyle;rounded=0;orthogonalLoop=1;jettySize=auto;html=1;entryX=0.5;entryY=0;entryDx=0;entryDy=0;" edge="1" parent="1" source="I1hWbBrPSnOUSOGmWdJ9-32" target="I1hWbBrPSnOUSOGmWdJ9-44">
          <mxGeometry relative="1" as="geometry" />
        </mxCell>
        <mxCell id="I1hWbBrPSnOUSOGmWdJ9-32" value="" style="rounded=0;whiteSpace=wrap;html=1;" vertex="1" parent="1">
          <mxGeometry x="-125" y="695" width="160" height="60" as="geometry" />
        </mxCell>
        <mxCell id="I1hWbBrPSnOUSOGmWdJ9-34" value="CUS_STATE_CALC_CRC" style="text;html=1;align=center;verticalAlign=middle;resizable=0;points=[];autosize=1;strokeColor=none;fillColor=none;" vertex="1" parent="1">
          <mxGeometry x="-125" y="710" width="160" height="30" as="geometry" />
        </mxCell>
        <mxCell id="I1hWbBrPSnOUSOGmWdJ9-55" style="edgeStyle=orthogonalEdgeStyle;rounded=0;orthogonalLoop=1;jettySize=auto;html=1;" edge="1" parent="1" source="I1hWbBrPSnOUSOGmWdJ9-36" target="I1hWbBrPSnOUSOGmWdJ9-52">
          <mxGeometry relative="1" as="geometry" />
        </mxCell>
        <mxCell id="I1hWbBrPSnOUSOGmWdJ9-36" value="" style="rounded=0;whiteSpace=wrap;html=1;" vertex="1" parent="1">
          <mxGeometry x="-120" y="910" width="160" height="60" as="geometry" />
        </mxCell>
        <mxCell id="I1hWbBrPSnOUSOGmWdJ9-38" value="CUS_STATE_INSTALL" style="text;html=1;align=center;verticalAlign=middle;resizable=0;points=[];autosize=1;strokeColor=none;fillColor=none;" vertex="1" parent="1">
          <mxGeometry x="-115" y="925" width="150" height="30" as="geometry" />
        </mxCell>
        <mxCell id="I1hWbBrPSnOUSOGmWdJ9-39" value="&lt;div&gt;Send for client to &lt;br&gt;&lt;/div&gt;&lt;div&gt;cmd: 0x680 [0,0,0,0,0,0,0,0]&lt;br&gt;&lt;/div&gt;" style="text;html=1;align=center;verticalAlign=middle;resizable=0;points=[];autosize=1;strokeColor=none;fillColor=none;" vertex="1" parent="1">
          <mxGeometry x="130" y="850" width="170" height="40" as="geometry" />
        </mxCell>
        <mxCell id="I1hWbBrPSnOUSOGmWdJ9-40" value="" style="edgeStyle=orthogonalEdgeStyle;rounded=0;orthogonalLoop=1;jettySize=auto;html=1;dashed=1;dashPattern=8 8;" edge="1" parent="1">
          <mxGeometry relative="1" as="geometry">
            <mxPoint x="210" y="905" as="sourcePoint" />
            <mxPoint x="640" y="905" as="targetPoint" />
          </mxGeometry>
        </mxCell>
        <mxCell id="I1hWbBrPSnOUSOGmWdJ9-41" value="&lt;div&gt;call uh_update_software(UPDATE_MOVE_NONEXE,&amp;amp;update_components), &lt;br&gt;&lt;/div&gt;&lt;div&gt;Then callc uc_install_app(0) &lt;/div&gt;" style="text;html=1;align=center;verticalAlign=middle;resizable=0;points=[];autosize=1;strokeColor=none;fillColor=none;" vertex="1" parent="1">
          <mxGeometry x="430" y="855" width="430" height="40" as="geometry" />
        </mxCell>
        <mxCell id="I1hWbBrPSnOUSOGmWdJ9-42" value="" style="edgeStyle=orthogonalEdgeStyle;rounded=0;orthogonalLoop=1;jettySize=auto;html=1;dashed=1;dashPattern=8 8;endArrow=none;endFill=0;startArrow=classic;startFill=1;" edge="1" parent="1">
          <mxGeometry relative="1" as="geometry">
            <mxPoint x="210" y="985" as="sourcePoint" />
            <mxPoint x="640" y="985" as="targetPoint" />
          </mxGeometry>
        </mxCell>
        <mxCell id="I1hWbBrPSnOUSOGmWdJ9-43" value="&lt;div&gt;send back response of uc_install:&lt;/div&gt;&lt;div&gt;0x680 [err,0,0,0,0,0,0,0]&lt;br&gt;&lt;/div&gt;" style="text;html=1;align=center;verticalAlign=middle;resizable=0;points=[];autosize=1;strokeColor=none;fillColor=none;" vertex="1" parent="1">
          <mxGeometry x="525" y="935" width="200" height="40" as="geometry" />
        </mxCell>
        <mxCell id="I1hWbBrPSnOUSOGmWdJ9-45" style="edgeStyle=orthogonalEdgeStyle;rounded=0;orthogonalLoop=1;jettySize=auto;html=1;entryX=0.469;entryY=0;entryDx=0;entryDy=0;entryPerimeter=0;" edge="1" parent="1" source="I1hWbBrPSnOUSOGmWdJ9-44" target="I1hWbBrPSnOUSOGmWdJ9-36">
          <mxGeometry relative="1" as="geometry" />
        </mxCell>
        <mxCell id="I1hWbBrPSnOUSOGmWdJ9-46" style="edgeStyle=orthogonalEdgeStyle;rounded=0;orthogonalLoop=1;jettySize=auto;html=1;entryX=0.5;entryY=0;entryDx=0;entryDy=0;" edge="1" parent="1" source="I1hWbBrPSnOUSOGmWdJ9-44" target="I1hWbBrPSnOUSOGmWdJ9-49">
          <mxGeometry relative="1" as="geometry">
            <mxPoint x="-275" y="900" as="targetPoint" />
          </mxGeometry>
        </mxCell>
        <mxCell id="I1hWbBrPSnOUSOGmWdJ9-44" value="Valid CRC?" style="rhombus;whiteSpace=wrap;html=1;" vertex="1" parent="1">
          <mxGeometry x="-85" y="780" width="80" height="80" as="geometry" />
        </mxCell>
        <mxCell id="I1hWbBrPSnOUSOGmWdJ9-47" value="Yes" style="text;html=1;align=center;verticalAlign=middle;resizable=0;points=[];autosize=1;strokeColor=none;fillColor=none;" vertex="1" parent="1">
          <mxGeometry x="-35" y="868" width="40" height="30" as="geometry" />
        </mxCell>
        <mxCell id="I1hWbBrPSnOUSOGmWdJ9-48" value="No" style="text;html=1;align=center;verticalAlign=middle;resizable=0;points=[];autosize=1;strokeColor=none;fillColor=none;" vertex="1" parent="1">
          <mxGeometry x="-315" y="868" width="40" height="30" as="geometry" />
        </mxCell>
        <mxCell id="I1hWbBrPSnOUSOGmWdJ9-49" value="" style="rounded=0;whiteSpace=wrap;html=1;" vertex="1" parent="1">
          <mxGeometry x="-355" y="910" width="160" height="60" as="geometry" />
        </mxCell>
        <mxCell id="I1hWbBrPSnOUSOGmWdJ9-50" value="CUS_STATE_ERROR" style="text;html=1;align=center;verticalAlign=middle;resizable=0;points=[];autosize=1;strokeColor=none;fillColor=none;" vertex="1" parent="1">
          <mxGeometry x="-345" y="925" width="140" height="30" as="geometry" />
        </mxCell>
        <mxCell id="I1hWbBrPSnOUSOGmWdJ9-52" value="" style="rounded=0;whiteSpace=wrap;html=1;" vertex="1" parent="1">
          <mxGeometry x="-112.5" y="1050" width="145" height="60" as="geometry" />
        </mxCell>
        <mxCell id="I1hWbBrPSnOUSOGmWdJ9-53" value="CUS_STATE_SUCCESS" style="text;html=1;align=center;verticalAlign=middle;resizable=0;points=[];autosize=1;strokeColor=none;fillColor=none;" vertex="1" parent="1">
          <mxGeometry x="-120" y="1065" width="160" height="30" as="geometry" />
        </mxCell>
      </root>
    </mxGraphModel>
  </diagram>
</mxfile>
